<?xml version="1.0" encoding="utf-8"?>
<!-- Generated by IcoMoon.io -->
<!DOCTYPE svg PUBLIC "-//W3C//DTD SVG 1.1//EN" "http://www.w3.org/Graphics/SVG/1.1/DTD/svg11.dtd">
<svg fill="#5eb829" version="1.1" xmlns="http://www.w3.org/2000/svg" xmlns:xlink="http://www.w3.org/1999/xlink" width="31" height="32" viewBox="0 0 31 32">
<path d="M16.884 16.144c0.008-0.043 0.012-0.093 0.012-0.144s-0.004-0.1-0.013-0.149l14.31-14.304c0.164-0.164 0.265-0.391 0.265-0.641 0-0.501-0.406-0.906-0.906-0.906-0.25 0-0.477 0.101-0.641 0.265l-14.188 14.188-14.177-14.188c-0.164-0.164-0.391-0.265-0.641-0.265-0.501 0-0.906 0.406-0.906 0.906 0 0.25 0.101 0.477 0.265 0.641l14.309 14.309c-0.008 0.043-0.012 0.093-0.012 0.144s0.004 0.1 0.013 0.149l-14.299 14.304c-0.164 0.164-0.266 0.391-0.266 0.641s0.102 0.477 0.266 0.641c0.154 0.18 0.377 0.297 0.628 0.309 0.002 0 0.002 0 0.002 0 0.25 0 0.477-0.101 0.64-0.265l14.177-14.221 14.188 14.177c0.164 0.164 0.39 0.265 0.64 0.265 0 0 0 0 0 0 0.003 0 0.006 0 0.010 0 0.247 0 0.471-0.102 0.631-0.265 0.164-0.164 0.266-0.391 0.266-0.641s-0.102-0.477-0.266-0.641z"></path>
</svg>
