<?xml version="1.0" encoding="UTF-8" ?>
<!DOCTYPE svg PUBLIC "-//W3C//DTD SVG 1.1//EN" "http://www.w3.org/Graphics/SVG/1.1/DTD/svg11.dtd">
<svg width="38pt" height="54pt" viewBox="0 0 38 54" version="1.1" xmlns="http://www.w3.org/2000/svg">
<g id="#36d85eff">
<path fill="#36d85e" opacity="1.00" d=" M 17.35 0.00 L 19.85 0.00 C 27.57 0.37 34.61 6.06 36.60 13.52 C 38.42 19.43 36.62 25.67 34.10 31.08 C 30.15 39.43 24.68 46.98 18.72 54.00 L 18.58 54.00 C 10.56 44.03 2.04 33.30 0.00 20.30 L 0.00 17.66 C 0.37 8.51 8.17 0.46 17.35 0.00 M 17.33 12.33 C 12.17 13.16 10.24 20.44 14.15 23.82 C 17.44 27.22 23.83 25.46 25.00 20.91 C 26.66 16.30 22.10 11.14 17.33 12.33 Z" />
</g>
</svg>
